<svg xmlns="http://www.w3.org/2000/svg" viewBox="0 0 24 24" fill="none">
  <path d="M13.3502 21.9505C12.8802 22.6405 11.7702 22.3005 11.7402 21.4405L11.3202 8.14047H20.3402C21.5902 8.14047 22.3402 9.54047 21.6202 10.5105L13.3502 21.9505Z" fill="url(#paint0_linear)" fill-opacity="0.8"/>
  <path d="M13.3502 21.9505C12.8802 22.6405 11.7702 22.3005 11.7402 21.4405L11.3202 8.14047H20.3402C21.5902 8.14047 22.3402 9.54047 21.6202 10.5105L13.3502 21.9505Z" fill="url(#paint1_linear)"/>
  <path d="M10.6498 2.04953C11.1198 1.35953 12.2298 1.69953 12.2598 2.55953L12.5698 15.8595H3.65979C2.40979 15.8595 1.65979 14.4595 2.37979 13.4895L10.6498 2.04953Z" fill="#3ECF8E"/>
  <defs>
    <linearGradient id="paint0_linear" x1="11.3202" y1="10.0705" x2="18.5302" y2="15.3505" gradientUnits="userSpaceOnUse">
      <stop stop-color="#249361"/>
      <stop offset="1" stop-color="#3ECF8E"/>
    </linearGradient>
    <linearGradient id="paint1_linear" x1="9.88022" y1="9.72047" x2="14.4002" y2="15.7505" gradientUnits="userSpaceOnUse">
      <stop/>
      <stop offset="1" stop-opacity="0"/>
    </linearGradient>
  </defs>
</svg>

